# xmcd
#
# Track frame offsets:
#	150
#	17644
#	32927
#	49701
#	66762
#
# Disc length: 1047 seconds
#
# Revision: 0
# Processed by: cddbd v1.5.1PL0 Copyright (c) Steve Scherf et al.
# Submitted via: dBpowerAMP V4.0
#
DISCID=3b041505
DTITLE=Ray Barbee - Vans Album
DYEAR=1900
DGENRE=
TTITLE0=Afroca
TTITLE1=Sonship
TTITLE2=Reminiscing
TTITLE3=Pressing on
TTITLE4=In Flight
EXTD=
EXTT0=
EXTT1=
EXTT2=
EXTT3=
EXTT4=
PLAYORDER=
